<?xml version="1.0" encoding="UTF-8" standalone="no"?>
<svg
   height="16px"
   viewBox="0 0 16 16"
   width="16px"
   version="1.1"
   id="svg1"
   sodipodi:docname="cross-symbolic.svg"
   inkscape:version="1.3.2 (091e20ef0f, 2023-11-25, custom)"
   xmlns:inkscape="http://www.inkscape.org/namespaces/inkscape"
   xmlns:sodipodi="http://sodipodi.sourceforge.net/DTD/sodipodi-0.dtd"
   xmlns="http://www.w3.org/2000/svg"
   xmlns:svg="http://www.w3.org/2000/svg">
  <defs
     id="defs1" />
  <sodipodi:namedview
     id="namedview1"
     pagecolor="#ffffff"
     bordercolor="#000000"
     borderopacity="0.25"
     inkscape:showpageshadow="2"
     inkscape:pageopacity="0.0"
     inkscape:pagecheckerboard="0"
     inkscape:deskcolor="#d1d1d1"
     inkscape:zoom="60"
     inkscape:cx="7.2333333"
     inkscape:cy="6.9"
     inkscape:window-width="2162"
     inkscape:window-height="1132"
     inkscape:window-x="0"
     inkscape:window-y="0"
     inkscape:window-maximized="1"
     inkscape:current-layer="svg1" />
  <path
     d="m 1.353407,0.0240885 c -0.3531002,0 -0.69062217,0.1402019 -0.9398694,0.38944914 -0.51926508,0.51926507 -0.51926508,1.36047386 0,1.87973886 L 6.1202611,8 0.4135376,13.706724 c -0.51926508,0.519265 -0.51926508,1.360473 0,1.879738 0.51926507,0.519266 1.3604738,0.519266 1.8797389,0 L 8,9.8797389 13.706723,15.586462 c 0.519266,0.519266 1.360474,0.519266 1.879739,0 0.519265,-0.519265 0.519265,-1.360473 0,-1.879738 L 9.8797389,8 15.586462,2.2932765 c 0.519265,-0.519265 0.519265,-1.36047379 0,-1.87973886 C 15.337215,0.1642904 14.999693,0.0240885 14.646593,0.0240885 c -0.3531,0 -0.690622,0.1402019 -0.93987,0.38944914 L 8,6.1202611 2.2932765,0.41353764 C 2.0440293,0.1642904 1.7065073,0.0240885 1.353407,0.0240885 Z m 0,0"
     fill="#222222"
     id="path1"
     style="stroke-width:1.32932" />
</svg>
